<svg width="973" height="194" viewBox="0 0 973 194" fill="none" xmlns="http://www.w3.org/2000/svg">
<path d="M592.667 36.08V46H581.307V57.76H568.827V46H526.427V38.56L569.947 1.76H581.307V36.08H592.667ZM543.387 36.08H568.907V14.4L543.387 36.08Z" fill="#1890AE"/>
<path d="M486.889 59.52C465.769 59.52 452.889 48.4 452.889 29.76C452.889 11.12 465.769 0 486.889 0C508.089 0 520.969 11.12 520.969 29.76C520.969 48.4 508.089 59.52 486.889 59.52ZM486.969 48.48C499.929 48.48 507.929 42.08 507.929 29.76C507.929 17.44 499.929 11.04 486.969 11.04C473.929 11.04 465.929 17.44 465.929 29.76C465.929 42.08 473.929 48.48 486.969 48.48Z" fill="#1890AE"/>
<path d="M446.573 36.08V46H435.213V57.76H422.733V46H380.333V38.56L423.853 1.76H435.213V36.08H446.573ZM397.293 36.08H422.813V14.4L397.293 36.08Z" fill="#1890AE"/>
<path d="M8.35193 83.52H0V99.52H8.35193V83.52Z" fill="#9CDFE7"/>
<path d="M16.7039 83.52H12.5279V99.52H16.7039V83.52Z" fill="#9CDFE7"/>
<path d="M29.2318 83.52H25.0558V99.52H29.2318V83.52Z" fill="#9CDFE7"/>
<path d="M50.1116 83.52H45.9356V99.52H50.1116V83.52Z" fill="#9CDFE7"/>
<path d="M62.6395 83.52H58.4635V99.52H62.6395V83.52Z" fill="#9CDFE7"/>
<path d="M87.6953 83.52H79.3434V99.52H87.6953V83.52Z" fill="#9CDFE7"/>
<path d="M96.0472 83.52H91.8712V99.52H96.0472V83.52Z" fill="#9CDFE7"/>
<path d="M121.103 83.52H112.751V99.52H121.103V83.52Z" fill="#9CDFE7"/>
<path d="M129.455 83.52H125.279V99.52H129.455V83.52Z" fill="#9CDFE7"/>
<path d="M141.983 83.52H137.807V99.52H141.983V83.52Z" fill="#9CDFE7"/>
<path d="M171.215 83.52H154.511V99.52H171.215V83.52Z" fill="#9CDFE7"/>
<path d="M179.567 83.52H175.391V99.52H179.567V83.52Z" fill="#9CDFE7"/>
<path d="M187.918 83.52H183.742V99.52H187.918V83.52Z" fill="#9CDFE7"/>
<path d="M212.974 83.52H204.622V99.52H212.974V83.52Z" fill="#9CDFE7"/>
<path d="M225.502 83.52H221.326V99.52H225.502V83.52Z" fill="#9CDFE7"/>
<path d="M233.854 83.52H229.678V99.52H233.854V83.52Z" fill="#9CDFE7"/>
<path d="M246.382 83.52H238.03V99.52H246.382V83.52Z" fill="#9CDFE7"/>
<path d="M258.91 83.52H254.734V99.52H258.91V83.52Z" fill="#9CDFE7"/>
<path d="M279.79 83.52H275.614V99.52H279.79V83.52Z" fill="#9CDFE7"/>
<path d="M304.845 83.52H288.142V99.52H304.845V83.52Z" fill="#9CDFE7"/>
<path d="M313.197 83.52H309.021V99.52H313.197V83.52Z" fill="#9CDFE7"/>
<path d="M325.725 83.52H321.549V99.52H325.725V83.52Z" fill="#9CDFE7"/>
<path d="M342.429 83.52H334.077V99.52H342.429V83.52Z" fill="#9CDFE7"/>
<path d="M359.133 83.52H346.605V99.52H359.133V83.52Z" fill="#9CDFE7"/>
<path d="M371.661 83.52H367.485V99.52H371.661V83.52Z" fill="#9CDFE7"/>
<path d="M396.717 83.52H388.365V99.52H396.717V83.52Z" fill="#9CDFE7"/>
<path d="M409.245 83.52H405.069V99.52H409.245V83.52Z" fill="#9CDFE7"/>
<path d="M417.597 83.52H413.421V99.52H417.597V83.52Z" fill="#9CDFE7"/>
<path d="M430.124 83.52H421.773V99.52H430.124V83.52Z" fill="#9CDFE7"/>
<path d="M442.652 83.52H438.476V99.52H442.652V83.52Z" fill="#9CDFE7"/>
<path d="M463.532 83.52H459.356V99.52H463.532V83.52Z" fill="#9CDFE7"/>
<path d="M488.588 83.52H471.884V99.52H488.588V83.52Z" fill="#9CDFE7"/>
<path d="M496.94 83.52H492.764V99.52H496.94V83.52Z" fill="#9CDFE7"/>
<path d="M509.468 83.52H505.292V99.52H509.468V83.52Z" fill="#9CDFE7"/>
<path d="M526.172 83.52H517.82V99.52H526.172V83.52Z" fill="#9CDFE7"/>
<path d="M542.876 83.52H530.348V99.52H542.876V83.52Z" fill="#9CDFE7"/>
<path d="M555.403 83.52H551.227V99.52H555.403V83.52Z" fill="#9CDFE7"/>
<path d="M567.931 83.52H563.755V99.52H567.931V83.52Z" fill="#9CDFE7"/>
<path d="M580.459 83.52H572.107V99.52H580.459V83.52Z" fill="#9CDFE7"/>
<path d="M601.339 83.52H597.163V99.52H601.339V83.52Z" fill="#9CDFE7"/>
<path d="M613.867 83.52H605.515V99.52H613.867V83.52Z" fill="#9CDFE7"/>
<path d="M626.395 83.52H622.219V99.52H626.395V83.52Z" fill="#9CDFE7"/>
<path d="M647.275 83.52H643.099V99.52H647.275V83.52Z" fill="#9CDFE7"/>
<path d="M659.803 83.52H655.627V99.52H659.803V83.52Z" fill="#9CDFE7"/>
<path d="M684.858 83.52H668.155V99.52H684.858V83.52Z" fill="#9CDFE7"/>
<path d="M693.21 83.52H689.034V99.52H693.21V83.52Z" fill="#9CDFE7"/>
<path d="M705.738 83.52H701.562V99.52H705.738V83.52Z" fill="#9CDFE7"/>
<path d="M718.266 83.52H709.914V99.52H718.266V83.52Z" fill="#9CDFE7"/>
<path d="M739.146 83.52H734.97V99.52H739.146V83.52Z" fill="#9CDFE7"/>
<path d="M764.202 83.52H747.498V99.52H764.202V83.52Z" fill="#9CDFE7"/>
<path d="M772.554 83.52H768.378V99.52H772.554V83.52Z" fill="#9CDFE7"/>
<path d="M785.082 83.52H780.906V99.52H785.082V83.52Z" fill="#9CDFE7"/>
<path d="M814.313 83.52H797.609V99.52H814.313V83.52Z" fill="#9CDFE7"/>
<path d="M822.665 83.52H818.489V99.52H822.665V83.52Z" fill="#9CDFE7"/>
<path d="M831.017 83.52H826.841V99.52H831.017V83.52Z" fill="#9CDFE7"/>
<path d="M843.545 83.52H839.369V99.52H843.545V83.52Z" fill="#9CDFE7"/>
<path d="M868.601 83.52H851.897V99.52H868.601V83.52Z" fill="#9CDFE7"/>
<path d="M881.129 83.52H872.777V99.52H881.129V83.52Z" fill="#9CDFE7"/>
<path d="M893.657 83.52H885.305V99.52H893.657V83.52Z" fill="#9CDFE7"/>
<path d="M910.361 83.52H902.009V99.52H910.361V83.52Z" fill="#9CDFE7"/>
<path d="M927.064 83.52H918.712V99.52H927.064V83.52Z" fill="#9CDFE7"/>
<path d="M952.12 83.52H939.592V99.52H952.12V83.52Z" fill="#9CDFE7"/>
<path d="M960.472 83.52H956.296V99.52H960.472V83.52Z" fill="#9CDFE7"/>
<path d="M973 83.52H964.648V99.52H973V83.52Z" fill="#9CDFE7"/>
<path d="M621.535 164.4C632.095 164.4 638.855 169.68 638.855 178.4C638.855 187.12 632.095 192.4 621.535 192.4H606.655V164.4H621.535ZM621.055 186.96C627.775 186.96 632.335 184.16 632.335 178.4C632.335 172.64 627.775 169.84 621.055 169.84H613.055V186.96H621.055Z" fill="#1890AE"/>
<path d="M592.921 164.4H599.121V192.4H593.521L573.441 172.16V192.4H567.241V164.4H574.041L592.921 183.6V164.4Z" fill="#1890AE"/>
<path d="M553.832 164.4H560.232V179.2C560.232 187.6 554.672 193.28 544.512 193.28C534.352 193.28 528.792 187.6 528.792 179.2V164.4H535.192V178.72C535.192 184.32 538.472 187.68 544.512 187.68C550.552 187.68 553.832 184.32 553.832 178.72V164.4Z" fill="#1890AE"/>
<path d="M505.702 193.28C494.782 193.28 487.902 187.76 487.902 178.4C487.902 169.04 494.782 163.52 505.702 163.52C516.622 163.52 523.502 169.04 523.502 178.4C523.502 187.76 516.622 193.28 505.702 193.28ZM505.702 187.76C512.622 187.76 516.982 184.4 516.982 178.4C516.982 172.4 512.622 169.04 505.702 169.04C498.782 169.04 494.422 172.4 494.422 178.4C494.422 184.4 498.742 187.76 505.702 187.76Z" fill="#1890AE"/>
<path d="M485.561 169.92H463.641V176.4H482.121V181.92H463.641V192.4H457.241V164.4H485.561V169.92Z" fill="#1890AE"/>
<path d="M442.969 164.4V169.92H430.729V192.4H424.329V169.92H412.169V164.4H442.969Z" fill="#1890AE"/>
<path d="M392.655 193.28C381.735 193.28 374.855 187.76 374.855 178.4C374.855 169.04 381.735 163.52 392.655 163.52C403.575 163.52 410.455 169.04 410.455 178.4C410.455 187.76 403.575 193.28 392.655 193.28ZM392.655 187.76C399.575 187.76 403.935 184.4 403.935 178.4C403.935 172.4 399.575 169.04 392.655 169.04C385.735 169.04 381.375 172.4 381.375 178.4C381.375 184.4 385.695 187.76 392.655 187.76Z" fill="#1890AE"/>
<path d="M362.921 164.4H369.121V192.4H363.521L343.441 172.16V192.4H337.241V164.4H344.041L362.921 183.6V164.4Z" fill="#1890AE"/>
<path d="M661.94 152.4H654.3L646.26 142.88H636.14V152.4H629.78V124.4H649.1C655.94 124.4 661.1 127.56 661.1 133.64C661.1 138.4 657.94 141.36 653.3 142.44L661.94 152.4ZM636.1 137.6H648.74C652.1 137.6 654.58 136.8 654.58 133.68C654.58 130.56 652.1 129.76 648.74 129.76H636.1V137.6Z" fill="#1890AE"/>
<path d="M606.21 153.28C595.29 153.28 588.41 147.76 588.41 138.4C588.41 129.04 595.29 123.52 606.21 123.52C617.13 123.52 624.01 129.04 624.01 138.4C624.01 147.76 617.13 153.28 606.21 153.28ZM606.21 147.76C613.13 147.76 617.49 144.4 617.49 138.4C617.49 132.4 613.13 129.04 606.21 129.04C599.29 129.04 594.93 132.4 594.93 138.4C594.93 144.4 599.25 147.76 606.21 147.76Z" fill="#1890AE"/>
<path d="M586.797 124.4V129.92H574.557V152.4H568.157V129.92H555.997V124.4H586.797Z" fill="#1890AE"/>
<path d="M552.774 152.4L549.774 146.48H532.854L529.854 152.4H523.014L537.854 124.4H544.854L559.694 152.4H552.774ZM535.494 141.28H547.094L541.294 129.88L535.494 141.28Z" fill="#1890AE"/>
<path d="M521.94 152.4H514.3L506.26 142.88H496.14V152.4H489.78V124.4H509.1C515.94 124.4 521.1 127.56 521.1 133.64C521.1 138.4 517.94 141.36 513.3 142.44L521.94 152.4ZM496.1 137.6H508.74C512.1 137.6 514.58 136.8 514.58 133.68C514.58 130.56 512.1 129.76 508.74 129.76H496.1V137.6Z" fill="#1890AE"/>
<path d="M461.765 147.04H484.245V152.4H455.405V124.4H483.845V129.76H461.765V135.52H480.205V140.88H461.765V147.04Z" fill="#1890AE"/>
<path d="M444.688 152.4L441.688 146.48H424.768L421.768 152.4H414.928L429.768 124.4H436.768L451.608 152.4H444.688ZM427.408 141.28H439.008L433.208 129.88L427.408 141.28Z" fill="#1890AE"/>
<path d="M405.703 124.4V129.92H393.463V152.4H387.063V129.92H374.903V124.4H405.703Z" fill="#1890AE"/>
<path d="M349.968 147.04H372.448V152.4H343.608V124.4H372.048V129.76H349.968V135.52H368.408V140.88H349.968V147.04Z" fill="#1890AE"/>
<path d="M315.58 144.48C317.22 146.64 319.26 147.68 322.7 147.68C328.1 147.68 330.22 144.72 330.22 139.88V124.4H336.62V140.36C336.62 147.76 332.14 153.28 322.7 153.28C317.18 153.28 313.5 151.4 311.06 148.28L315.58 144.48Z" fill="#1890AE"/>
</svg>
