<svg width="32" height="35" viewBox="0 0 32 35" fill="none" xmlns="http://www.w3.org/2000/svg">
<mask id="mask0_844_1343" style="mask-type:alpha" maskUnits="userSpaceOnUse" x="0" y="2" width="32" height="33">
<path d="M32 35H0V2H32V35ZM16 4C9.37258 4 4 9.37258 4 16C4 22.6274 9.37258 28 16 28C22.6274 28 28 22.6274 28 16C28 9.37258 22.6274 4 16 4Z" fill="#D9D9D9"/>
</mask>
<g mask="url(#mask0_844_1343)">
<g filter="url(#filter0_f_844_1343)">
<path d="M5.91667 20C5.91667 25.5689 10.4311 30.0833 16 30.0833C21.5689 30.0833 26.0833 25.5689 26.0833 20C26.0833 14.4311 21.5689 9.91667 16 9.91667L16 9C22.0751 9 27 13.9249 27 20C27 26.0751 22.0751 31 16 31C9.92487 31 5 26.0751 5 20C5 13.9249 9.92487 9 16 9L16 9.91667C10.4311 9.91666 5.91667 14.4311 5.91667 20Z" fill="#1890AE" fill-opacity="0.5"/>
</g>
</g>
<circle cx="16" cy="16" r="12" fill="url(#paint0_radial_844_1343)"/>
<circle cx="16" cy="16" r="12" fill="url(#paint1_radial_844_1343)" fill-opacity="0.4"/>
<circle cx="16" cy="16" r="11" fill="url(#paint2_radial_844_1343)" fill-opacity="0.55"/>
<circle cx="16" cy="16" r="11" transform="rotate(180 16 16)" fill="url(#paint3_radial_844_1343)" fill-opacity="0.55"/>
<path d="M11.2607 9.72559L8.43262 12.5537L6.92773 11.793C7.65324 10.2311 8.76907 8.88821 10.1514 7.88965L11.2607 9.72559Z" fill="url(#paint4_radial_844_1343)"/>
<path d="M15.5 7.5L12.5 8.5L11.2617 7.19238C12.4854 6.53267 13.8622 6.1229 15.3252 6.02539L15.5 7.5Z" fill="url(#paint5_radial_844_1343)"/>
<defs>
<filter id="filter0_f_844_1343" x="1" y="5" width="30" height="30" filterUnits="userSpaceOnUse" color-interpolation-filters="sRGB">
<feFlood flood-opacity="0" result="BackgroundImageFix"/>
<feBlend mode="normal" in="SourceGraphic" in2="BackgroundImageFix" result="shape"/>
<feGaussianBlur stdDeviation="2" result="effect1_foregroundBlur_844_1343"/>
</filter>
<radialGradient id="paint0_radial_844_1343" cx="0" cy="0" r="1" gradientUnits="userSpaceOnUse" gradientTransform="translate(18 13) rotate(-93.5763) scale(16.0312 19.5798)">
<stop offset="0.4" stop-color="#1890AE" stop-opacity="0"/>
<stop offset="1" stop-color="#1890AE" stop-opacity="0.6"/>
</radialGradient>
<radialGradient id="paint1_radial_844_1343" cx="0" cy="0" r="1" gradientUnits="userSpaceOnUse" gradientTransform="translate(17 12.5) rotate(-122.005) scale(9.43398 12.9717)">
<stop offset="0.4" stop-color="#1890AE" stop-opacity="0"/>
<stop offset="1" stop-color="#1890AE" stop-opacity="0.5"/>
</radialGradient>
<radialGradient id="paint2_radial_844_1343" cx="0" cy="0" r="1" gradientUnits="userSpaceOnUse" gradientTransform="translate(16 5) rotate(90) scale(23)">
<stop offset="0.5" stop-color="white" stop-opacity="0"/>
<stop offset="1" stop-color="white"/>
</radialGradient>
<radialGradient id="paint3_radial_844_1343" cx="0" cy="0" r="1" gradientUnits="userSpaceOnUse" gradientTransform="translate(16 17.5) rotate(85.4261) scale(12.5399 23.9866)">
<stop offset="0.5" stop-color="white" stop-opacity="0"/>
<stop offset="1" stop-color="white"/>
</radialGradient>
<radialGradient id="paint4_radial_844_1343" cx="0" cy="0" r="1" gradientUnits="userSpaceOnUse" gradientTransform="translate(12 12.5) rotate(-125.538) scale(4.30116 16.1189)">
<stop stop-color="white" stop-opacity="0"/>
<stop offset="1" stop-color="white"/>
</radialGradient>
<radialGradient id="paint5_radial_844_1343" cx="0" cy="0" r="1" gradientUnits="userSpaceOnUse" gradientTransform="translate(16 11.5) rotate(-111.801) scale(5.38517 30.1897)">
<stop stop-color="white" stop-opacity="0"/>
<stop offset="1" stop-color="white"/>
</radialGradient>
</defs>
</svg>
