<svg width="32" height="32" viewBox="0 0 32 32" fill="none" xmlns="http://www.w3.org/2000/svg">
<circle cx="16" cy="16" r="12" fill="url(#paint0_radial_844_1343)"/>
<circle cx="16" cy="16" r="12" fill="url(#paint1_radial_844_1343)" fill-opacity="0.2"/>
<circle cx="16" cy="16" r="11" fill="url(#paint2_radial_844_1343)"/>
<circle cx="16" cy="16" r="11" transform="rotate(180 16 16)" fill="url(#paint3_radial_844_1343)"/>
<path d="M11.2607 9.72559L8.43262 12.5537L6.92773 11.793C7.65324 10.2311 8.76907 8.88821 10.1514 7.88965L11.2607 9.72559Z" fill="url(#paint4_radial_844_1343)"/>
<path d="M15.5 7.5L12.5 8.5L11.2617 7.19238C12.4854 6.53267 13.8622 6.1229 15.3252 6.02539L15.5 7.5Z" fill="url(#paint5_radial_844_1343)"/>
<defs>
<radialGradient id="paint0_radial_844_1343" cx="0" cy="0" r="1" gradientUnits="userSpaceOnUse" gradientTransform="translate(16 14) rotate(156.801) scale(15.2315)">
<stop offset="0.6" stop-color="#7AB2CE" stop-opacity="0"/>
<stop offset="1" stop-color="#7AB2CE" stop-opacity="0.5"/>
</radialGradient>
<radialGradient id="paint1_radial_844_1343" cx="0" cy="0" r="1" gradientUnits="userSpaceOnUse" gradientTransform="translate(16.5 18.5) rotate(177.709) scale(12.51)">
<stop offset="0.8" stop-color="#7AB2CE" stop-opacity="0"/>
<stop offset="1" stop-color="#7AB2CE" stop-opacity="0.5"/>
</radialGradient>
<radialGradient id="paint2_radial_844_1343" cx="0" cy="0" r="1" gradientUnits="userSpaceOnUse" gradientTransform="translate(7.5 10.5) rotate(39.2072) scale(24.5204)">
<stop offset="0.5" stop-color="white" stop-opacity="0"/>
<stop offset="1" stop-color="white"/>
</radialGradient>
<radialGradient id="paint3_radial_844_1343" cx="0" cy="0" r="1" gradientUnits="userSpaceOnUse" gradientTransform="translate(16 17.5) rotate(46.6366) scale(12.3794 23.6795)">
<stop offset="0.5" stop-color="white" stop-opacity="0"/>
<stop offset="1" stop-color="white"/>
</radialGradient>
<radialGradient id="paint4_radial_844_1343" cx="0" cy="0" r="1" gradientUnits="userSpaceOnUse" gradientTransform="translate(19.5 20) rotate(-124.287) scale(13.3135 26.7797)">
<stop stop-color="white" stop-opacity="0"/>
<stop offset="1" stop-color="white"/>
</radialGradient>
<radialGradient id="paint5_radial_844_1343" cx="0" cy="0" r="1" gradientTransform="matrix(-6.11497 -9.16004 18.0401 -12.5626 20.3633 15.8246)" gradientUnits="userSpaceOnUse">
<stop stop-color="white" stop-opacity="0"/>
<stop offset="1" stop-color="white"/>
</radialGradient>
</defs>
</svg>
