<svg width="1661" height="438" viewBox="0 0 1661 438" fill="none" xmlns="http://www.w3.org/2000/svg">
<mask id="path-1-outside-1_385_2061" maskUnits="userSpaceOnUse" x="0" y="0.879883" width="1661" height="438" fill="black">
<rect fill="white" y="0.879883" width="1661" height="438"/>
<path d="M1522.48 381V257.4H1617.04C1630.96 257.4 1641.2 260.92 1647.76 267.96C1654.32 274.84 1657.6 283.96 1657.6 295.32V321H1622.32V299.64C1622.32 290.04 1617.52 285.24 1607.92 285.24H1557.76V381H1522.48Z"/>
<path d="M1388.26 382.2C1366.82 382.2 1350.1 376.92 1338.1 366.36C1326.1 355.64 1320.1 339.96 1320.1 319.32C1320.1 298.52 1326.1 282.84 1338.1 272.28C1350.1 261.56 1366.82 256.2 1388.26 256.2H1432.66C1454.1 256.2 1470.82 261.56 1482.82 272.28C1494.82 282.84 1500.82 298.52 1500.82 319.32C1500.82 339.96 1494.82 355.64 1482.82 366.36C1470.82 376.92 1454.1 382.2 1432.66 382.2H1388.26ZM1388.26 354.6H1432.66C1443.06 354.6 1450.98 351.72 1456.42 345.96C1462.02 340.2 1464.82 331.32 1464.82 319.32C1464.82 307.16 1462.02 298.2 1456.42 292.44C1450.98 286.68 1443.06 283.8 1432.66 283.8H1388.26C1377.86 283.8 1369.86 286.68 1364.26 292.44C1358.82 298.2 1356.1 307.16 1356.1 319.32C1356.1 331.32 1358.82 340.2 1364.26 345.96C1369.86 351.72 1377.86 354.6 1388.26 354.6Z"/>
<path d="M1254.69 381C1240.77 381 1230.53 377.56 1223.97 370.68C1217.41 363.64 1214.13 354.44 1214.13 343.08V285H1178.37V257.4H1214.13V219.48H1248.93V257.4H1300.29V285H1248.93V338.76C1248.93 348.52 1253.73 353.4 1263.33 353.4H1307.01V381H1254.69Z"/>
<path d="M1036.92 381C1023.96 381 1014.04 377.72 1007.16 371.16C1000.28 364.6 996.844 355.24 996.844 343.08C996.844 331.08 1000.28 321.8 1007.16 315.24C1014.04 308.68 1023.96 305.4 1036.92 305.4H1129.08V299.64C1129.08 289.88 1124.28 285 1114.68 285H1012.92V257.4H1123.8C1138.36 257.4 1148.68 260.76 1154.76 267.48C1160.84 274.04 1163.88 283.32 1163.88 295.32V381H1036.92ZM1043.16 353.4H1129.08V333H1043.16C1040.12 333 1037.72 333.96 1035.96 335.88C1034.36 337.64 1033.56 340.04 1033.56 343.08C1033.56 346.12 1034.36 348.6 1035.96 350.52C1037.72 352.44 1040.12 353.4 1043.16 353.4Z"/>
<path d="M849.825 381V257.4H944.385C958.305 257.4 968.545 260.92 975.105 267.96C981.665 274.84 984.945 283.96 984.945 295.32V321H949.665V299.64C949.665 290.04 944.865 285.24 935.265 285.24H885.105V381H849.825Z"/>
<path d="M724.747 382.2C703.307 382.2 686.588 376.92 674.588 366.36C662.588 355.64 656.588 339.96 656.588 319.32C656.588 298.52 662.588 282.84 674.588 272.28C686.588 261.56 703.307 256.2 724.747 256.2H784.747C798.828 256.2 809.548 259.56 816.908 266.28C824.428 272.84 828.188 282.28 828.188 294.6C828.188 319.72 813.708 332.28 784.747 332.28H694.028C697.388 347.16 707.628 354.6 724.747 354.6H821.948V382.2H724.747ZM724.747 283.8C708.268 283.8 698.108 290.76 694.268 304.68H783.068C786.268 304.68 788.747 303.72 790.508 301.8C792.427 299.88 793.388 297.24 793.388 293.88C793.388 287.16 789.948 283.8 783.068 283.8H724.747Z"/>
<path d="M507.939 381C494.979 381 485.059 377.72 478.179 371.16C471.299 364.6 467.859 355.24 467.859 343.08C467.859 331.08 471.299 321.8 478.179 315.24C485.059 308.68 494.979 305.4 507.939 305.4H600.099V299.64C600.099 289.88 595.299 285 585.699 285H488.939V257.4H594.819C609.379 257.4 619.699 260.76 625.779 267.48C631.859 274.04 634.899 283.32 634.899 295.32V381H507.939ZM514.179 353.4H600.099V333H514.179C511.139 333 508.739 333.96 506.979 335.88C505.379 337.64 504.579 340.04 504.579 343.08C504.579 346.12 505.379 348.6 506.979 350.52C508.739 352.44 511.139 353.4 514.179 353.4Z"/>
<path d="M320.942 381C307.022 381 296.782 377.56 290.222 370.68C283.662 363.64 280.382 354.44 280.382 343.08V285H244.622V257.4H280.382V219.48H315.182V257.4H366.542V285H315.182V338.76C315.182 348.52 319.982 353.4 329.582 353.4H373.262V381H320.942Z"/>
<path d="M126.857 382.2C105.417 382.2 88.6968 376.92 76.6968 366.36C64.6968 355.64 58.6968 339.96 58.6968 319.32C58.6968 298.52 64.6968 282.84 76.6968 272.28C88.6968 261.56 105.417 256.2 126.857 256.2H186.857C200.937 256.2 211.657 259.56 219.017 266.28C226.537 272.84 230.297 282.28 230.297 294.6C230.297 319.72 215.817 332.28 186.857 332.28H96.1368C99.4968 347.16 109.737 354.6 126.857 354.6H224.057V382.2H126.857ZM126.857 283.8C110.377 283.8 100.217 290.76 96.3768 304.68H185.177C188.377 304.68 190.857 303.72 192.617 301.8C194.537 299.88 195.497 297.24 195.497 293.88C195.497 287.16 192.057 283.8 185.177 283.8H126.857Z"/>
<path d="M3.24 435V257.4H38.04V435H3.24ZM3 237V209.88H38.28V237H3Z"/>
<path d="M907.5 77.8799C902.248 77.8799 897.376 76.9039 892.883 74.9518C888.448 73.0589 884.596 70.4266 881.329 67.0549C878.061 63.6832 875.522 59.7792 873.713 55.3427C871.904 50.8471 871 46.0262 871 40.8799C871 35.7336 871.904 30.9422 873.713 26.5058C875.522 22.0102 878.061 18.0765 881.329 14.7048C884.596 11.3331 888.448 8.70083 892.883 6.80794C897.376 4.8559 902.248 3.87988 907.5 3.87988C912.752 3.87988 917.595 4.8559 922.03 6.80794C926.523 8.70083 930.404 11.3331 933.672 14.7048C936.939 18.0765 939.478 22.0102 941.287 26.5058C943.096 30.9422 944 35.7336 944 40.8799C944 46.0262 943.096 50.8471 941.287 55.3427C939.478 59.7792 936.939 63.6832 933.672 67.0549C930.404 70.4266 926.523 73.0589 922.03 74.9518C917.595 76.9039 912.752 77.8799 907.5 77.8799ZM907.5 71.2252C913.51 71.2252 918.675 69.983 922.993 67.4986C927.369 64.955 930.754 61.4059 933.146 56.8511C935.539 52.2964 936.735 46.9726 936.735 40.8799C936.735 34.7872 935.539 29.4634 933.146 24.9087C930.754 20.3539 927.369 16.8343 922.993 14.3499C918.675 11.8063 913.51 10.5346 907.5 10.5346C901.548 10.5346 896.384 11.8063 892.007 14.3499C887.631 16.8343 884.246 20.3539 881.854 24.9087C879.461 29.4634 878.265 34.7872 878.265 40.8799C878.265 46.9726 879.461 52.2964 881.854 56.8511C884.246 61.4059 887.631 64.955 892.007 67.4986C896.384 69.983 901.548 71.2252 907.5 71.2252ZM890.432 60.3115V21.4482H914.24C918.383 21.4482 921.446 22.6313 923.43 24.9974C925.473 27.3043 926.494 30.2028 926.494 33.6928C926.494 36.6505 925.735 39.2236 924.218 41.4123C922.759 43.5418 920.6 44.9023 917.741 45.4938L927.019 60.3115H916.428L907.763 45.8487H899.097V60.3115H890.432ZM899.097 38.6617H912.139C914.006 38.6617 915.319 38.2772 916.078 37.5082C916.837 36.68 917.216 35.4083 917.216 33.6928C917.216 31.9183 916.837 30.6465 916.078 29.8775C915.319 29.0493 914.006 28.6353 912.139 28.6353H899.097V38.6617Z"/>
<path d="M806.689 191.48C792.769 191.48 782.529 188.04 775.969 181.16C769.409 174.12 766.129 164.92 766.129 153.56V95.4799H730.369V67.8799H766.129V29.9599H800.929V67.8799H852.289V95.4799H800.929V149.24C800.929 159 805.729 163.88 815.329 163.88H859.009V191.48H806.689Z"/>
<path d="M612.604 192.68C591.164 192.68 574.444 187.4 562.444 176.84C550.444 166.12 544.444 150.44 544.444 129.8C544.444 109 550.444 93.3199 562.444 82.7599C574.444 72.0399 591.164 66.6799 612.604 66.6799H672.604C686.684 66.6799 697.404 70.0399 704.764 76.7599C712.284 83.3199 716.044 92.7599 716.044 105.08C716.044 130.2 701.564 142.76 672.604 142.76H581.884C585.244 157.64 595.484 165.08 612.604 165.08H709.804V192.68H612.604ZM612.604 94.2799C596.124 94.2799 585.964 101.24 582.124 115.16H670.924C674.124 115.16 676.604 114.2 678.364 112.28C680.284 110.36 681.244 107.72 681.244 104.36C681.244 97.6399 677.804 94.2799 670.924 94.2799H612.604Z"/>
<path d="M488.987 237.48V67.8799H523.787V237.48H488.987ZM488.747 47.4799V20.3599H524.027V47.4799H488.747Z"/>
<path d="M355.729 192.68C334.289 192.68 317.569 187.4 305.569 176.84C293.569 166.12 287.569 150.44 287.569 129.8C287.569 109 293.569 93.3199 305.569 82.7599C317.569 72.0399 334.289 66.6799 355.729 66.6799H400.129C421.569 66.6799 438.289 72.0399 450.289 82.7599C462.289 93.3199 468.289 109 468.289 129.8C468.289 150.44 462.289 166.12 450.289 176.84C438.289 187.4 421.569 192.68 400.129 192.68H355.729ZM355.729 165.08H400.129C410.529 165.08 418.449 162.2 423.889 156.44C429.489 150.68 432.289 141.8 432.289 129.8C432.289 117.64 429.489 108.68 423.889 102.92C418.449 97.1599 410.529 94.2799 400.129 94.2799H355.729C345.329 94.2799 337.329 97.1599 331.729 102.92C326.289 108.68 323.569 117.64 323.569 129.8C323.569 141.8 326.289 150.68 331.729 156.44C337.329 162.2 345.329 165.08 355.729 165.08Z"/>
<path d="M231.197 191.48V67.8799H265.997V191.48H231.197ZM230.957 47.4799V20.3599H266.237V47.4799H230.957Z"/>
<path d="M3 191.48V20.3599L147.48 19.8799C166.52 19.8799 180.6 23.8799 189.72 31.8799C199 39.7199 203.64 51.5599 203.64 67.3999C203.64 83.2399 198.36 94.8399 187.8 102.2C194.84 106.04 200.04 111.16 203.4 117.56C206.76 123.8 208.44 131.88 208.44 141.8C208.44 157.96 203.8 170.28 194.52 178.76C185.4 187.08 171.32 191.24 152.28 191.24L3 191.48ZM142.92 50.5999H41.4V88.9999H142.92C157.48 88.9999 164.76 82.4399 164.76 69.3199C164.76 56.8399 157.48 50.5999 142.92 50.5999ZM147.72 119.72H41.4V160.52H147.72C162.28 160.52 169.56 153.64 169.56 139.88C169.56 126.44 162.28 119.72 147.72 119.72Z"/>
</mask>
<path d="M1522.48 381V257.4H1617.04C1630.96 257.4 1641.2 260.92 1647.76 267.96C1654.32 274.84 1657.6 283.96 1657.6 295.32V321H1622.32V299.64C1622.32 290.04 1617.52 285.24 1607.92 285.24H1557.76V381H1522.48Z" fill="#DDF4F7"/>
<path d="M1388.26 382.2C1366.82 382.2 1350.1 376.92 1338.1 366.36C1326.1 355.64 1320.1 339.96 1320.1 319.32C1320.1 298.52 1326.1 282.84 1338.1 272.28C1350.1 261.56 1366.82 256.2 1388.26 256.2H1432.66C1454.1 256.2 1470.82 261.56 1482.82 272.28C1494.82 282.84 1500.82 298.52 1500.82 319.32C1500.82 339.96 1494.82 355.64 1482.82 366.36C1470.82 376.92 1454.1 382.2 1432.66 382.2H1388.26ZM1388.26 354.6H1432.66C1443.06 354.6 1450.98 351.72 1456.42 345.96C1462.02 340.2 1464.82 331.32 1464.82 319.32C1464.82 307.16 1462.02 298.2 1456.42 292.44C1450.98 286.68 1443.06 283.8 1432.66 283.8H1388.26C1377.86 283.8 1369.86 286.68 1364.26 292.44C1358.82 298.2 1356.1 307.16 1356.1 319.32C1356.1 331.32 1358.82 340.2 1364.26 345.96C1369.86 351.72 1377.86 354.6 1388.26 354.6Z" fill="#DDF4F7"/>
<path d="M1254.69 381C1240.77 381 1230.53 377.56 1223.97 370.68C1217.41 363.64 1214.13 354.44 1214.13 343.08V285H1178.37V257.4H1214.13V219.48H1248.93V257.4H1300.29V285H1248.93V338.76C1248.93 348.52 1253.73 353.4 1263.33 353.4H1307.01V381H1254.69Z" fill="#DDF4F7"/>
<path d="M1036.92 381C1023.96 381 1014.04 377.72 1007.16 371.16C1000.28 364.6 996.844 355.24 996.844 343.08C996.844 331.08 1000.28 321.8 1007.16 315.24C1014.04 308.68 1023.96 305.4 1036.92 305.4H1129.08V299.64C1129.08 289.88 1124.28 285 1114.68 285H1012.92V257.4H1123.8C1138.36 257.4 1148.68 260.76 1154.76 267.48C1160.84 274.04 1163.88 283.32 1163.88 295.32V381H1036.92ZM1043.16 353.4H1129.08V333H1043.16C1040.12 333 1037.72 333.96 1035.96 335.88C1034.36 337.64 1033.56 340.04 1033.56 343.08C1033.56 346.12 1034.36 348.6 1035.96 350.52C1037.72 352.44 1040.12 353.4 1043.16 353.4Z" fill="#DDF4F7"/>
<path d="M849.825 381V257.4H944.385C958.305 257.4 968.545 260.92 975.105 267.96C981.665 274.84 984.945 283.96 984.945 295.32V321H949.665V299.64C949.665 290.04 944.865 285.24 935.265 285.24H885.105V381H849.825Z" fill="#DDF4F7"/>
<path d="M724.747 382.2C703.307 382.2 686.588 376.92 674.588 366.36C662.588 355.64 656.588 339.96 656.588 319.32C656.588 298.52 662.588 282.84 674.588 272.28C686.588 261.56 703.307 256.2 724.747 256.2H784.747C798.828 256.2 809.548 259.56 816.908 266.28C824.428 272.84 828.188 282.28 828.188 294.6C828.188 319.72 813.708 332.28 784.747 332.28H694.028C697.388 347.16 707.628 354.6 724.747 354.6H821.948V382.2H724.747ZM724.747 283.8C708.268 283.8 698.108 290.76 694.268 304.68H783.068C786.268 304.68 788.747 303.72 790.508 301.8C792.427 299.88 793.388 297.24 793.388 293.88C793.388 287.16 789.948 283.8 783.068 283.8H724.747Z" fill="#DDF4F7"/>
<path d="M507.939 381C494.979 381 485.059 377.72 478.179 371.16C471.299 364.6 467.859 355.24 467.859 343.08C467.859 331.08 471.299 321.8 478.179 315.24C485.059 308.68 494.979 305.4 507.939 305.4H600.099V299.64C600.099 289.88 595.299 285 585.699 285H488.939V257.4H594.819C609.379 257.4 619.699 260.76 625.779 267.48C631.859 274.04 634.899 283.32 634.899 295.32V381H507.939ZM514.179 353.4H600.099V333H514.179C511.139 333 508.739 333.96 506.979 335.88C505.379 337.64 504.579 340.04 504.579 343.08C504.579 346.12 505.379 348.6 506.979 350.52C508.739 352.44 511.139 353.4 514.179 353.4Z" fill="#DDF4F7"/>
<path d="M320.942 381C307.022 381 296.782 377.56 290.222 370.68C283.662 363.64 280.382 354.44 280.382 343.08V285H244.622V257.4H280.382V219.48H315.182V257.4H366.542V285H315.182V338.76C315.182 348.52 319.982 353.4 329.582 353.4H373.262V381H320.942Z" fill="#DDF4F7"/>
<path d="M126.857 382.2C105.417 382.2 88.6968 376.92 76.6968 366.36C64.6968 355.64 58.6968 339.96 58.6968 319.32C58.6968 298.52 64.6968 282.84 76.6968 272.28C88.6968 261.56 105.417 256.2 126.857 256.2H186.857C200.937 256.2 211.657 259.56 219.017 266.28C226.537 272.84 230.297 282.28 230.297 294.6C230.297 319.72 215.817 332.28 186.857 332.28H96.1368C99.4968 347.16 109.737 354.6 126.857 354.6H224.057V382.2H126.857ZM126.857 283.8C110.377 283.8 100.217 290.76 96.3768 304.68H185.177C188.377 304.68 190.857 303.72 192.617 301.8C194.537 299.88 195.497 297.24 195.497 293.88C195.497 287.16 192.057 283.8 185.177 283.8H126.857Z" fill="#DDF4F7"/>
<path d="M3.24 435V257.4H38.04V435H3.24ZM3 237V209.88H38.28V237H3Z" fill="#DDF4F7"/>
<path d="M907.5 77.8799C902.248 77.8799 897.376 76.9039 892.883 74.9518C888.448 73.0589 884.596 70.4266 881.329 67.0549C878.061 63.6832 875.522 59.7792 873.713 55.3427C871.904 50.8471 871 46.0262 871 40.8799C871 35.7336 871.904 30.9422 873.713 26.5058C875.522 22.0102 878.061 18.0765 881.329 14.7048C884.596 11.3331 888.448 8.70083 892.883 6.80794C897.376 4.8559 902.248 3.87988 907.5 3.87988C912.752 3.87988 917.595 4.8559 922.03 6.80794C926.523 8.70083 930.404 11.3331 933.672 14.7048C936.939 18.0765 939.478 22.0102 941.287 26.5058C943.096 30.9422 944 35.7336 944 40.8799C944 46.0262 943.096 50.8471 941.287 55.3427C939.478 59.7792 936.939 63.6832 933.672 67.0549C930.404 70.4266 926.523 73.0589 922.03 74.9518C917.595 76.9039 912.752 77.8799 907.5 77.8799ZM907.5 71.2252C913.51 71.2252 918.675 69.983 922.993 67.4986C927.369 64.955 930.754 61.4059 933.146 56.8511C935.539 52.2964 936.735 46.9726 936.735 40.8799C936.735 34.7872 935.539 29.4634 933.146 24.9087C930.754 20.3539 927.369 16.8343 922.993 14.3499C918.675 11.8063 913.51 10.5346 907.5 10.5346C901.548 10.5346 896.384 11.8063 892.007 14.3499C887.631 16.8343 884.246 20.3539 881.854 24.9087C879.461 29.4634 878.265 34.7872 878.265 40.8799C878.265 46.9726 879.461 52.2964 881.854 56.8511C884.246 61.4059 887.631 64.955 892.007 67.4986C896.384 69.983 901.548 71.2252 907.5 71.2252ZM890.432 60.3115V21.4482H914.24C918.383 21.4482 921.446 22.6313 923.43 24.9974C925.473 27.3043 926.494 30.2028 926.494 33.6928C926.494 36.6505 925.735 39.2236 924.218 41.4123C922.759 43.5418 920.6 44.9023 917.741 45.4938L927.019 60.3115H916.428L907.763 45.8487H899.097V60.3115H890.432ZM899.097 38.6617H912.139C914.006 38.6617 915.319 38.2772 916.078 37.5082C916.837 36.68 917.216 35.4083 917.216 33.6928C917.216 31.9183 916.837 30.6465 916.078 29.8775C915.319 29.0493 914.006 28.6353 912.139 28.6353H899.097V38.6617Z" fill="#DDF4F7"/>
<path d="M806.689 191.48C792.769 191.48 782.529 188.04 775.969 181.16C769.409 174.12 766.129 164.92 766.129 153.56V95.4799H730.369V67.8799H766.129V29.9599H800.929V67.8799H852.289V95.4799H800.929V149.24C800.929 159 805.729 163.88 815.329 163.88H859.009V191.48H806.689Z" fill="#DDF4F7"/>
<path d="M612.604 192.68C591.164 192.68 574.444 187.4 562.444 176.84C550.444 166.12 544.444 150.44 544.444 129.8C544.444 109 550.444 93.3199 562.444 82.7599C574.444 72.0399 591.164 66.6799 612.604 66.6799H672.604C686.684 66.6799 697.404 70.0399 704.764 76.7599C712.284 83.3199 716.044 92.7599 716.044 105.08C716.044 130.2 701.564 142.76 672.604 142.76H581.884C585.244 157.64 595.484 165.08 612.604 165.08H709.804V192.68H612.604ZM612.604 94.2799C596.124 94.2799 585.964 101.24 582.124 115.16H670.924C674.124 115.16 676.604 114.2 678.364 112.28C680.284 110.36 681.244 107.72 681.244 104.36C681.244 97.6399 677.804 94.2799 670.924 94.2799H612.604Z" fill="#DDF4F7"/>
<path d="M488.987 237.48V67.8799H523.787V237.48H488.987ZM488.747 47.4799V20.3599H524.027V47.4799H488.747Z" fill="#DDF4F7"/>
<path d="M355.729 192.68C334.289 192.68 317.569 187.4 305.569 176.84C293.569 166.12 287.569 150.44 287.569 129.8C287.569 109 293.569 93.3199 305.569 82.7599C317.569 72.0399 334.289 66.6799 355.729 66.6799H400.129C421.569 66.6799 438.289 72.0399 450.289 82.7599C462.289 93.3199 468.289 109 468.289 129.8C468.289 150.44 462.289 166.12 450.289 176.84C438.289 187.4 421.569 192.68 400.129 192.68H355.729ZM355.729 165.08H400.129C410.529 165.08 418.449 162.2 423.889 156.44C429.489 150.68 432.289 141.8 432.289 129.8C432.289 117.64 429.489 108.68 423.889 102.92C418.449 97.1599 410.529 94.2799 400.129 94.2799H355.729C345.329 94.2799 337.329 97.1599 331.729 102.92C326.289 108.68 323.569 117.64 323.569 129.8C323.569 141.8 326.289 150.68 331.729 156.44C337.329 162.2 345.329 165.08 355.729 165.08Z" fill="#DDF4F7"/>
<path d="M231.197 191.48V67.8799H265.997V191.48H231.197ZM230.957 47.4799V20.3599H266.237V47.4799H230.957Z" fill="#DDF4F7"/>
<path d="M3 191.48V20.3599L147.48 19.8799C166.52 19.8799 180.6 23.8799 189.72 31.8799C199 39.7199 203.64 51.5599 203.64 67.3999C203.64 83.2399 198.36 94.8399 187.8 102.2C194.84 106.04 200.04 111.16 203.4 117.56C206.76 123.8 208.44 131.88 208.44 141.8C208.44 157.96 203.8 170.28 194.52 178.76C185.4 187.08 171.32 191.24 152.28 191.24L3 191.48ZM142.92 50.5999H41.4V88.9999H142.92C157.48 88.9999 164.76 82.4399 164.76 69.3199C164.76 56.8399 157.48 50.5999 142.92 50.5999ZM147.72 119.72H41.4V160.52H147.72C162.28 160.52 169.56 153.64 169.56 139.88C169.56 126.44 162.28 119.72 147.72 119.72Z" fill="#DDF4F7"/>
<path d="M1522.48 381V257.4H1617.04C1630.96 257.4 1641.2 260.92 1647.76 267.96C1654.32 274.84 1657.6 283.96 1657.6 295.32V321H1622.32V299.64C1622.32 290.04 1617.52 285.24 1607.92 285.24H1557.76V381H1522.48Z" stroke="#DDF4F7" stroke-width="6" mask="url(#path-1-outside-1_385_2061)"/>
<path d="M1388.26 382.2C1366.82 382.2 1350.1 376.92 1338.1 366.36C1326.1 355.64 1320.1 339.96 1320.1 319.32C1320.1 298.52 1326.1 282.84 1338.1 272.28C1350.1 261.56 1366.82 256.2 1388.26 256.2H1432.66C1454.1 256.2 1470.82 261.56 1482.82 272.28C1494.82 282.84 1500.82 298.52 1500.82 319.32C1500.82 339.96 1494.82 355.64 1482.82 366.36C1470.82 376.92 1454.1 382.2 1432.66 382.2H1388.26ZM1388.26 354.6H1432.66C1443.06 354.6 1450.98 351.72 1456.42 345.96C1462.02 340.2 1464.82 331.32 1464.82 319.32C1464.82 307.16 1462.02 298.2 1456.42 292.44C1450.98 286.68 1443.06 283.8 1432.66 283.8H1388.26C1377.86 283.8 1369.86 286.68 1364.26 292.44C1358.82 298.2 1356.1 307.16 1356.1 319.32C1356.1 331.32 1358.82 340.2 1364.26 345.96C1369.86 351.72 1377.86 354.6 1388.26 354.6Z" stroke="#DDF4F7" stroke-width="6" mask="url(#path-1-outside-1_385_2061)"/>
<path d="M1254.69 381C1240.77 381 1230.53 377.56 1223.97 370.68C1217.41 363.64 1214.13 354.44 1214.13 343.08V285H1178.37V257.4H1214.13V219.48H1248.93V257.4H1300.29V285H1248.93V338.76C1248.93 348.52 1253.73 353.4 1263.33 353.4H1307.01V381H1254.69Z" stroke="#DDF4F7" stroke-width="6" mask="url(#path-1-outside-1_385_2061)"/>
<path d="M1036.92 381C1023.96 381 1014.04 377.72 1007.16 371.16C1000.28 364.6 996.844 355.24 996.844 343.08C996.844 331.08 1000.28 321.8 1007.16 315.24C1014.04 308.68 1023.96 305.4 1036.92 305.4H1129.08V299.64C1129.08 289.88 1124.28 285 1114.68 285H1012.92V257.4H1123.8C1138.36 257.4 1148.68 260.76 1154.76 267.48C1160.84 274.04 1163.88 283.32 1163.88 295.32V381H1036.92ZM1043.16 353.4H1129.08V333H1043.16C1040.12 333 1037.72 333.96 1035.96 335.88C1034.36 337.64 1033.56 340.04 1033.56 343.08C1033.56 346.12 1034.36 348.6 1035.96 350.52C1037.72 352.44 1040.12 353.4 1043.16 353.4Z" stroke="#DDF4F7" stroke-width="6" mask="url(#path-1-outside-1_385_2061)"/>
<path d="M849.825 381V257.4H944.385C958.305 257.4 968.545 260.92 975.105 267.96C981.665 274.84 984.945 283.96 984.945 295.32V321H949.665V299.64C949.665 290.04 944.865 285.24 935.265 285.24H885.105V381H849.825Z" stroke="#DDF4F7" stroke-width="6" mask="url(#path-1-outside-1_385_2061)"/>
<path d="M724.747 382.2C703.307 382.2 686.588 376.92 674.588 366.36C662.588 355.64 656.588 339.96 656.588 319.32C656.588 298.52 662.588 282.84 674.588 272.28C686.588 261.56 703.307 256.2 724.747 256.2H784.747C798.828 256.2 809.548 259.56 816.908 266.28C824.428 272.84 828.188 282.28 828.188 294.6C828.188 319.72 813.708 332.28 784.747 332.28H694.028C697.388 347.16 707.628 354.6 724.747 354.6H821.948V382.2H724.747ZM724.747 283.8C708.268 283.8 698.108 290.76 694.268 304.68H783.068C786.268 304.68 788.747 303.72 790.508 301.8C792.427 299.88 793.388 297.24 793.388 293.88C793.388 287.16 789.948 283.8 783.068 283.8H724.747Z" stroke="#DDF4F7" stroke-width="6" mask="url(#path-1-outside-1_385_2061)"/>
<path d="M507.939 381C494.979 381 485.059 377.72 478.179 371.16C471.299 364.6 467.859 355.24 467.859 343.08C467.859 331.08 471.299 321.8 478.179 315.24C485.059 308.68 494.979 305.4 507.939 305.4H600.099V299.64C600.099 289.88 595.299 285 585.699 285H488.939V257.4H594.819C609.379 257.4 619.699 260.76 625.779 267.48C631.859 274.04 634.899 283.32 634.899 295.32V381H507.939ZM514.179 353.4H600.099V333H514.179C511.139 333 508.739 333.96 506.979 335.88C505.379 337.64 504.579 340.04 504.579 343.08C504.579 346.12 505.379 348.6 506.979 350.52C508.739 352.44 511.139 353.4 514.179 353.4Z" stroke="#DDF4F7" stroke-width="6" mask="url(#path-1-outside-1_385_2061)"/>
<path d="M320.942 381C307.022 381 296.782 377.56 290.222 370.68C283.662 363.64 280.382 354.44 280.382 343.08V285H244.622V257.4H280.382V219.48H315.182V257.4H366.542V285H315.182V338.76C315.182 348.52 319.982 353.4 329.582 353.4H373.262V381H320.942Z" stroke="#DDF4F7" stroke-width="6" mask="url(#path-1-outside-1_385_2061)"/>
<path d="M126.857 382.2C105.417 382.2 88.6968 376.92 76.6968 366.36C64.6968 355.64 58.6968 339.96 58.6968 319.32C58.6968 298.52 64.6968 282.84 76.6968 272.28C88.6968 261.56 105.417 256.2 126.857 256.2H186.857C200.937 256.2 211.657 259.56 219.017 266.28C226.537 272.84 230.297 282.28 230.297 294.6C230.297 319.72 215.817 332.28 186.857 332.28H96.1368C99.4968 347.16 109.737 354.6 126.857 354.6H224.057V382.2H126.857ZM126.857 283.8C110.377 283.8 100.217 290.76 96.3768 304.68H185.177C188.377 304.68 190.857 303.72 192.617 301.8C194.537 299.88 195.497 297.24 195.497 293.88C195.497 287.16 192.057 283.8 185.177 283.8H126.857Z" stroke="#DDF4F7" stroke-width="6" mask="url(#path-1-outside-1_385_2061)"/>
<path d="M3.24 435V257.4H38.04V435H3.24ZM3 237V209.88H38.28V237H3Z" stroke="#DDF4F7" stroke-width="6" mask="url(#path-1-outside-1_385_2061)"/>
<path d="M907.5 77.8799C902.248 77.8799 897.376 76.9039 892.883 74.9518C888.448 73.0589 884.596 70.4266 881.329 67.0549C878.061 63.6832 875.522 59.7792 873.713 55.3427C871.904 50.8471 871 46.0262 871 40.8799C871 35.7336 871.904 30.9422 873.713 26.5058C875.522 22.0102 878.061 18.0765 881.329 14.7048C884.596 11.3331 888.448 8.70083 892.883 6.80794C897.376 4.8559 902.248 3.87988 907.5 3.87988C912.752 3.87988 917.595 4.8559 922.03 6.80794C926.523 8.70083 930.404 11.3331 933.672 14.7048C936.939 18.0765 939.478 22.0102 941.287 26.5058C943.096 30.9422 944 35.7336 944 40.8799C944 46.0262 943.096 50.8471 941.287 55.3427C939.478 59.7792 936.939 63.6832 933.672 67.0549C930.404 70.4266 926.523 73.0589 922.03 74.9518C917.595 76.9039 912.752 77.8799 907.5 77.8799ZM907.5 71.2252C913.51 71.2252 918.675 69.983 922.993 67.4986C927.369 64.955 930.754 61.4059 933.146 56.8511C935.539 52.2964 936.735 46.9726 936.735 40.8799C936.735 34.7872 935.539 29.4634 933.146 24.9087C930.754 20.3539 927.369 16.8343 922.993 14.3499C918.675 11.8063 913.51 10.5346 907.5 10.5346C901.548 10.5346 896.384 11.8063 892.007 14.3499C887.631 16.8343 884.246 20.3539 881.854 24.9087C879.461 29.4634 878.265 34.7872 878.265 40.8799C878.265 46.9726 879.461 52.2964 881.854 56.8511C884.246 61.4059 887.631 64.955 892.007 67.4986C896.384 69.983 901.548 71.2252 907.5 71.2252ZM890.432 60.3115V21.4482H914.24C918.383 21.4482 921.446 22.6313 923.43 24.9974C925.473 27.3043 926.494 30.2028 926.494 33.6928C926.494 36.6505 925.735 39.2236 924.218 41.4123C922.759 43.5418 920.6 44.9023 917.741 45.4938L927.019 60.3115H916.428L907.763 45.8487H899.097V60.3115H890.432ZM899.097 38.6617H912.139C914.006 38.6617 915.319 38.2772 916.078 37.5082C916.837 36.68 917.216 35.4083 917.216 33.6928C917.216 31.9183 916.837 30.6465 916.078 29.8775C915.319 29.0493 914.006 28.6353 912.139 28.6353H899.097V38.6617Z" stroke="#DDF4F7" stroke-width="6" mask="url(#path-1-outside-1_385_2061)"/>
<path d="M806.689 191.48C792.769 191.48 782.529 188.04 775.969 181.16C769.409 174.12 766.129 164.92 766.129 153.56V95.4799H730.369V67.8799H766.129V29.9599H800.929V67.8799H852.289V95.4799H800.929V149.24C800.929 159 805.729 163.88 815.329 163.88H859.009V191.48H806.689Z" stroke="#DDF4F7" stroke-width="6" mask="url(#path-1-outside-1_385_2061)"/>
<path d="M612.604 192.68C591.164 192.68 574.444 187.4 562.444 176.84C550.444 166.12 544.444 150.44 544.444 129.8C544.444 109 550.444 93.3199 562.444 82.7599C574.444 72.0399 591.164 66.6799 612.604 66.6799H672.604C686.684 66.6799 697.404 70.0399 704.764 76.7599C712.284 83.3199 716.044 92.7599 716.044 105.08C716.044 130.2 701.564 142.76 672.604 142.76H581.884C585.244 157.64 595.484 165.08 612.604 165.08H709.804V192.68H612.604ZM612.604 94.2799C596.124 94.2799 585.964 101.24 582.124 115.16H670.924C674.124 115.16 676.604 114.2 678.364 112.28C680.284 110.36 681.244 107.72 681.244 104.36C681.244 97.6399 677.804 94.2799 670.924 94.2799H612.604Z" stroke="#DDF4F7" stroke-width="6" mask="url(#path-1-outside-1_385_2061)"/>
<path d="M488.987 237.48V67.8799H523.787V237.48H488.987ZM488.747 47.4799V20.3599H524.027V47.4799H488.747Z" stroke="#DDF4F7" stroke-width="6" mask="url(#path-1-outside-1_385_2061)"/>
<path d="M355.729 192.68C334.289 192.68 317.569 187.4 305.569 176.84C293.569 166.12 287.569 150.44 287.569 129.8C287.569 109 293.569 93.3199 305.569 82.7599C317.569 72.0399 334.289 66.6799 355.729 66.6799H400.129C421.569 66.6799 438.289 72.0399 450.289 82.7599C462.289 93.3199 468.289 109 468.289 129.8C468.289 150.44 462.289 166.12 450.289 176.84C438.289 187.4 421.569 192.68 400.129 192.68H355.729ZM355.729 165.08H400.129C410.529 165.08 418.449 162.2 423.889 156.44C429.489 150.68 432.289 141.8 432.289 129.8C432.289 117.64 429.489 108.68 423.889 102.92C418.449 97.1599 410.529 94.2799 400.129 94.2799H355.729C345.329 94.2799 337.329 97.1599 331.729 102.92C326.289 108.68 323.569 117.64 323.569 129.8C323.569 141.8 326.289 150.68 331.729 156.44C337.329 162.2 345.329 165.08 355.729 165.08Z" stroke="#DDF4F7" stroke-width="6" mask="url(#path-1-outside-1_385_2061)"/>
<path d="M231.197 191.48V67.8799H265.997V191.48H231.197ZM230.957 47.4799V20.3599H266.237V47.4799H230.957Z" stroke="#DDF4F7" stroke-width="6" mask="url(#path-1-outside-1_385_2061)"/>
<path d="M3 191.48V20.3599L147.48 19.8799C166.52 19.8799 180.6 23.8799 189.72 31.8799C199 39.7199 203.64 51.5599 203.64 67.3999C203.64 83.2399 198.36 94.8399 187.8 102.2C194.84 106.04 200.04 111.16 203.4 117.56C206.76 123.8 208.44 131.88 208.44 141.8C208.44 157.96 203.8 170.28 194.52 178.76C185.4 187.08 171.32 191.24 152.28 191.24L3 191.48ZM142.92 50.5999H41.4V88.9999H142.92C157.48 88.9999 164.76 82.4399 164.76 69.3199C164.76 56.8399 157.48 50.5999 142.92 50.5999ZM147.72 119.72H41.4V160.52H147.72C162.28 160.52 169.56 153.64 169.56 139.88C169.56 126.44 162.28 119.72 147.72 119.72Z" stroke="#DDF4F7" stroke-width="6" mask="url(#path-1-outside-1_385_2061)"/>
</svg>
