<svg width="80" height="80" viewBox="0 0 80 80" fill="none" xmlns="http://www.w3.org/2000/svg">
<path d="M36.6668 56.6664L43.3334 63.3331C43.99 63.9897 44.7695 64.5105 45.6274 64.8659C46.4853 65.2212 47.4048 65.4041 48.3334 65.4041C49.262 65.4041 50.1815 65.2212 51.0394 64.8659C51.8973 64.5105 52.6768 63.9897 53.3334 63.3331C53.99 62.6765 54.5109 61.8969 54.8662 61.039C55.2216 60.1811 55.4045 59.2616 55.4045 58.3331C55.4045 57.4045 55.2216 56.485 54.8662 55.6271C54.5109 54.7692 53.99 53.9897 53.3334 53.3331M46.6667 46.6664L55.0001 54.9997C56.3262 56.3258 58.1247 57.0708 60.0001 57.0708C61.8754 57.0708 63.674 56.3258 65.0001 54.9997C66.3262 53.6736 67.0712 51.8751 67.0712 49.9997C67.0712 48.1244 66.3262 46.3258 65.0001 44.9997L52.0667 32.0664C50.1917 30.1937 47.6501 29.1419 45.0001 29.1419C42.3501 29.1419 39.8084 30.1937 37.9334 32.0664L35.0001 34.9997C33.674 36.3258 31.8754 37.0708 30.0001 37.0708C28.1247 37.0708 26.3262 36.3258 25.0001 34.9997C23.674 33.6736 22.929 31.8751 22.929 29.9997C22.929 28.1244 23.674 26.3258 25.0001 24.9997L34.3668 15.6331C37.4076 12.6002 41.3731 10.6682 45.6356 10.143C49.898 9.6177 54.214 10.5292 57.9001 12.7331L59.4668 13.6664C60.886 14.523 62.5736 14.8201 64.2001 14.4997L70.0001 13.3331M70.0001 9.99973L73.3334 46.6664H66.6668M10.0001 9.99973L6.66675 46.6664L28.3334 68.3331C29.6595 69.6591 31.4581 70.4041 33.3334 70.4041C35.2088 70.4041 37.0073 69.6591 38.3334 68.3331C39.6595 67.007 40.4045 65.2084 40.4045 63.3331C40.4045 61.4577 39.6595 59.6591 38.3334 58.3331M10.0001 13.3331H36.6667" stroke="#9CDFE7" stroke-width="8" stroke-linecap="round" stroke-linejoin="round"/>
</svg>
