<svg width="32" height="32" viewBox="0 0 32 32" fill="none" xmlns="http://www.w3.org/2000/svg">
<path d="M32 15.5196C32 24.4371 25.0131 31.0391 16 31.0391C14.3814 31.0391 12.8282 30.8254 11.3683 30.4241C11.0848 30.3454 10.7834 30.3678 10.5139 30.4862L7.33824 31.8884C6.50752 32.2551 5.56992 31.6644 5.5424 30.7569L5.45536 27.9103C5.44448 27.5596 5.28704 27.2319 5.02528 26.9983C1.91168 24.2144 0 20.1844 0 15.5196C0 6.60206 6.98688 0 16 0C25.0131 0 32 6.60206 32 15.5196Z" fill="#0866FF"/>
<path d="M20.3441 19.9872L25.9146 11.3783C26.4746 10.513 25.4371 9.50569 24.5885 10.0913L18.7735 14.102C18.5777 14.237 18.3191 14.2409 18.1195 14.1116L12.9579 10.7722C12.5208 10.4893 11.9378 10.6148 11.6555 11.0512L6.08441 19.6602C5.52442 20.5254 6.56185 21.5327 7.41048 20.9472L13.2267 16.9358C13.4226 16.8008 13.6811 16.7969 13.8808 16.9262L19.0411 20.2649C19.4782 20.5478 20.0612 20.4224 20.3441 19.9859V19.9872Z" fill="white"/>
</svg>
