<svg width="80" height="80" viewBox="0 0 80 80" fill="none" xmlns="http://www.w3.org/2000/svg">
<path d="M43.3334 23.3337L29.0001 9.00032C27.4947 7.50217 25.4572 6.66113 23.3334 6.66113C21.2096 6.66113 19.1722 7.50217 17.6667 9.00032L9.00007 17.667C7.50193 19.1724 6.66089 21.2098 6.66089 23.3337C6.66089 25.4575 7.50193 27.4949 9.00007 29.0003L23.3334 43.3336M26.6667 20.0003L33.3334 13.3337M60.0001 53.3336L66.6667 46.667M56.6667 36.667L71.0001 51.0003C74.1334 54.1337 74.1334 59.2003 71.0001 62.3337L62.3334 71.0003C59.2001 74.1337 54.1334 74.1337 51.0001 71.0003L36.6667 56.667M50.0001 16.667L63.3334 30.0003M70.5801 22.707C72.3424 20.9451 73.3327 18.5552 73.333 16.0632C73.3333 13.5711 72.3437 11.181 70.5817 9.41865C68.8198 7.65629 66.43 6.66603 63.9379 6.66571C61.4459 6.6654 59.0558 7.65506 57.2934 9.41698L12.8067 53.9137C12.0328 54.6853 11.4605 55.6354 11.1401 56.6803L6.73674 71.187C6.65059 71.4753 6.64408 71.7815 6.71791 72.0732C6.79174 72.3648 6.94314 72.6311 7.15606 72.8437C7.36898 73.0562 7.63547 73.2072 7.92727 73.2806C8.21906 73.3539 8.52527 73.3469 8.81341 73.2603L23.3234 68.8603C24.3673 68.5428 25.3173 67.974 26.0901 67.2036L70.5801 22.707Z" stroke="#9CDFE7" stroke-width="8" stroke-linecap="round" stroke-linejoin="round"/>
</svg>
