<svg width="32" height="32" viewBox="0 0 32 32" fill="none" xmlns="http://www.w3.org/2000/svg">
<path d="M26.6665 11.9998C27.3737 11.9998 28.052 12.2808 28.5521 12.7809C29.0522 13.281 29.3332 13.9593 29.3332 14.6665V28.3812C29.3331 28.5684 29.2776 28.7514 29.1736 28.907C29.0696 29.0627 28.9217 29.184 28.7488 29.2557C28.5758 29.3273 28.3855 29.3461 28.2019 29.3095C28.0182 29.273 27.8496 29.1829 27.7172 29.0505L24.7812 26.1145C24.2812 25.6144 23.603 25.3333 22.8958 25.3332H13.3332C12.6259 25.3332 11.9476 25.0522 11.4476 24.5521C10.9475 24.052 10.6665 23.3737 10.6665 22.6665V21.3332M21.3332 13.3332C21.3332 14.0404 21.0522 14.7187 20.5521 15.2188C20.052 15.7189 19.3737 15.9998 18.6665 15.9998H9.10384C8.39665 16 7.71848 16.281 7.2185 16.7812L4.2825 19.7172C4.15011 19.8495 3.98144 19.9397 3.79782 19.9762C3.6142 20.0127 3.42388 19.994 3.25091 19.9223C3.07795 19.8507 2.93011 19.7294 2.82608 19.5737C2.72206 19.4181 2.66653 19.2351 2.6665 19.0478V5.33317C2.6665 4.62593 2.94746 3.94765 3.44755 3.44755C3.94765 2.94746 4.62593 2.6665 5.33317 2.6665H18.6665C19.3737 2.6665 20.052 2.94746 20.5521 3.44755C21.0522 3.94765 21.3332 4.62593 21.3332 5.33317V13.3332Z" stroke="#58C8D7" stroke-width="3" stroke-linecap="square" stroke-linejoin="bevel"/>
</svg>
