<svg width="37" height="37" viewBox="0 0 37 37" fill="none" xmlns="http://www.w3.org/2000/svg">
<path d="M18.5 0C28.7173 0 37 8.28273 37 18.5C37 28.7173 28.7173 37 18.5 37C8.28273 37 0 28.7173 0 18.5C0 8.28273 8.28273 0 18.5 0ZM8.5 6V31H22.252C23.3906 31 24.4583 30.8018 25.4561 30.4072C26.453 30.0119 27.3228 29.4778 28.0645 28.8037C28.8187 28.1181 29.4139 27.3215 29.8486 26.415C30.2832 25.5086 30.5 24.5376 30.5 23.5039C30.5 23.0386 30.43 22.5624 30.2891 22.0742C30.1614 21.5747 29.9692 21.098 29.7139 20.6455C29.4578 20.1916 29.1509 19.779 28.793 19.4072C28.4351 19.0234 28.0322 18.7208 27.585 18.5C28.0195 18.2559 28.4166 17.9481 28.7744 17.5762C29.1328 17.2048 29.4384 16.792 29.6943 16.3389C29.9496 15.8856 30.1488 15.415 30.2891 14.9268C30.43 14.4389 30.5 13.9615 30.5 13.4971C30.5 12.4624 30.2833 11.4913 29.8486 10.585C29.414 9.6785 28.8185 8.88883 28.0645 8.21484C27.3228 7.52937 26.453 6.98919 25.4561 6.59375C24.4583 6.19878 23.3906 6.00004 22.252 6H8.5ZM22.252 21.0107C22.6356 21.0108 22.9944 21.0742 23.3271 21.2021C23.6599 21.3301 23.9467 21.5109 24.1895 21.7432C24.4454 21.9639 24.6433 22.2252 24.7842 22.5273C24.9244 22.8296 24.9951 23.1552 24.9951 23.5039C24.9951 23.852 24.9243 24.1779 24.7842 24.4795C24.6433 24.7818 24.4454 25.0492 24.1895 25.2822C23.9468 25.5029 23.6597 25.6768 23.3271 25.8047C22.9944 25.9326 22.6356 25.997 22.252 25.9971H14.0049V21.0107H22.252ZM22.252 11.0039C22.6356 11.0039 22.9944 11.0675 23.3271 11.1953C23.6598 11.3231 23.9467 11.5038 24.1895 11.7363C24.4455 11.957 24.6433 12.2194 24.7842 12.5215C24.9243 12.8235 24.9951 13.1483 24.9951 13.4971C24.9951 13.8456 24.9244 14.1767 24.7842 14.4902C24.6433 14.7926 24.4454 15.0598 24.1895 15.292C23.9467 15.5126 23.6599 15.6886 23.3271 15.8164C22.9944 15.9442 22.6356 16.0078 22.252 16.0078H14.0049V11.0039H22.252Z" fill="#1890AE"/>
</svg>
