<svg width="210" height="86" viewBox="0 0 210 86" fill="none" xmlns="http://www.w3.org/2000/svg">
<path d="M143.35 59.1432C143.597 59.1665 143.843 59.2186 144.089 59.2991L137.909 66.6099C137.805 66.4486 137.72 66.2632 137.656 66.0558C137.591 65.8476 137.533 65.6341 137.481 65.4153C137.442 65.1837 137.41 64.9581 137.384 64.7393C137.371 64.5197 137.364 64.323 137.364 64.1503C137.364 63.3766 137.5 62.6832 137.773 62.0715C138.044 61.4473 138.414 60.9163 138.88 60.4771C139.36 60.0384 139.917 59.7035 140.552 59.4727C141.2 59.2301 141.886 59.1085 142.612 59.1085C142.871 59.1085 143.117 59.1204 143.35 59.1432Z" fill="white"/>
<path d="M114.897 62.0882C115.181 62.7006 115.324 63.388 115.324 64.1503C115.324 64.9006 115.181 65.5879 114.897 66.2117C114.624 66.8355 114.249 67.3669 113.769 67.8053C113.289 68.2444 112.726 68.585 112.078 68.828C111.443 69.0703 110.763 69.1914 110.037 69.1914C109.311 69.1914 108.625 69.0642 107.977 68.8106C107.342 68.5449 106.785 68.1868 106.305 67.7364C105.839 67.2859 105.47 66.7545 105.197 66.1428C104.926 65.5304 104.789 64.8664 104.789 64.1503C104.789 63.388 104.926 62.7006 105.197 62.0882C105.47 61.4648 105.839 60.9337 106.305 60.4945C106.785 60.0444 107.342 59.7035 107.977 59.4727C108.625 59.2301 109.311 59.1085 110.037 59.1085C110.763 59.1085 111.443 59.2301 112.078 59.4727C112.726 59.7035 113.289 60.0444 113.769 60.4945C114.249 60.9337 114.624 61.4648 114.897 62.0882Z" fill="white"/>
<path d="M79.1334 68.6198H70.7763V63.665H79.1334C79.5223 63.665 79.885 63.7286 80.2223 63.8558C80.5596 63.983 80.8506 64.1617 81.0966 64.3926C81.3561 64.6121 81.5566 64.8718 81.6994 65.1723C81.8416 65.4728 81.9133 65.7961 81.9133 66.1428C81.9133 66.4888 81.8416 66.8127 81.6994 67.1126C81.5566 67.4131 81.3561 67.6781 81.0966 67.9097C80.8506 68.1292 80.5596 68.3019 80.2223 68.4291C79.885 68.5562 79.5223 68.6198 79.1334 68.6198Z" fill="white"/>
<path d="M79.1334 58.6931H70.7763V53.7206H79.1334C79.5223 53.7206 79.885 53.7841 80.2223 53.9111C80.5596 54.0381 80.8506 54.2173 81.0966 54.4486C81.3561 54.6679 81.5566 54.9279 81.6994 55.2281C81.8416 55.5284 81.9133 55.8515 81.9133 56.1984C81.9133 56.5448 81.8416 56.8738 81.6994 57.1855C81.5566 57.4861 81.3561 57.7516 81.0966 57.9825C80.8506 58.2018 80.5596 58.3755 80.2223 58.5025C79.885 58.6296 79.5223 58.6931 79.1334 58.6931Z" fill="white"/>
<path fill-rule="evenodd" clip-rule="evenodd" d="M147.862 3.6313C146.93 0.87567 143.838 -0.635479 140.957 0.256045C138.076 1.14757 136.496 4.10416 137.428 6.85977L145.21 29.8642L139.295 19.3139C138.461 17.8249 136.522 17.2651 134.965 18.0634C133.408 18.8618 132.823 20.7159 133.658 22.2049L137.911 29.791L120.452 5.71769C119.589 4.52775 117.882 4.23219 116.637 5.05756C115.393 5.88287 115.084 7.51655 115.947 8.70648L130.869 29.2832C130.194 29.3078 129.521 29.5367 128.96 29.9795C127.596 31.0541 127.402 32.9821 128.525 34.2858L133.037 39.5208L115.169 24.0661C113.672 22.7709 111.36 22.882 110.006 24.3141C108.915 25.468 108.778 27.1276 109.549 28.4063L73.577 3.6641C71.5279 2.25504 68.673 2.70119 67.1992 4.66067C65.7261 6.62016 66.1928 9.35094 68.2412 10.7601L107.097 37.4848L78.9041 21.9259C77.8119 21.3228 76.4145 21.6812 75.7843 22.7264C75.1533 23.7717 75.5281 25.108 76.6211 25.7111L88.6351 32.3417C87.2398 32.2931 85.8786 33.0157 85.2216 34.2914C84.9138 34.8885 84.8011 35.5287 84.8588 36.1463L82.502 35.1759C81.1114 34.6034 79.4988 35.2174 78.9001 36.5475C78.3013 37.8776 78.943 39.42 80.3343 39.9927L88.3186 43.2805L38.9623 28.8914C35.5829 27.9062 32.0084 29.7278 30.9784 32.9598C30.6801 33.896 30.6279 34.8478 30.7864 35.7516L5.55813 29.6077C3.60181 29.1313 1.61203 30.2619 1.1139 32.1331C0.615768 34.0042 1.79789 35.9072 3.75428 36.3837L57.4415 49.4582L49.1923 47.8958C47.9549 47.6613 46.7527 48.4309 46.5076 49.6145C46.4609 49.8403 46.4523 50.0646 46.4775 50.2813L19.0018 46.1537C16.7582 45.8165 14.6536 47.283 14.3012 49.429C13.9488 51.5745 15.482 53.5876 17.7256 53.9244L62.448 60.6435L41.8808 58.7891C40.6247 58.6757 39.5103 59.5577 39.3919 60.7591C39.2735 61.9604 40.1958 63.0265 41.452 63.1397L43.5463 63.3291L33.8013 63.1504C30.0167 63.0814 26.8902 65.9594 26.8179 69.5796C26.7456 73.1991 29.755 76.1895 33.5395 76.2585L56.0707 76.6701C56.0593 76.7906 56.0561 76.9144 56.0625 77.0389C56.1337 78.4852 57.4177 79.6029 58.9301 79.5347L83.0223 78.4464C82.842 78.9356 82.7595 79.4677 82.7984 80.0179C82.9492 82.1857 84.9091 83.8255 87.1754 83.6802L110.762 82.1717C110.668 82.4595 110.637 82.7693 110.678 83.0873C110.836 84.2846 111.978 85.1333 113.23 84.9827L166.004 78.6465C166.115 78.6331 166.223 78.6124 166.327 78.5849C169.327 78.1372 171.696 75.8234 172.066 72.904C172.069 72.8832 172.073 72.8631 172.076 72.8424L175.96 47.9328C176.257 46.023 174.88 44.244 172.884 43.9592C172.744 43.9393 172.604 43.9271 172.466 43.9226L175.512 26.3611C175.718 25.1706 174.877 24.0454 173.632 23.848C172.387 23.6505 171.211 24.4555 171.005 25.6459L170.081 30.9723L171.655 5.37381C171.729 4.16915 170.768 3.13509 169.509 3.06428C168.249 2.9934 167.168 3.91254 167.094 5.11727L166.025 22.4973L165.232 14.9478C164.905 11.8259 161.993 9.54919 158.729 9.86255C155.465 10.1759 153.084 12.9608 153.412 16.0827L154.014 21.8201L147.862 3.6313ZM97.4039 49.9961C97.4039 50.4348 97.3066 50.8447 97.1122 51.2258C96.9305 51.607 96.6784 51.942 96.3539 52.2308C96.03 52.5081 95.6485 52.7335 95.2073 52.9066C94.7802 53.0685 94.3202 53.1489 93.8274 53.1489C93.3353 53.1489 92.8686 53.0685 92.4281 52.9066C92.0003 52.7335 91.6248 52.5081 91.3003 52.2308C90.9899 51.942 90.7371 51.607 90.5426 51.2258C90.3609 50.8447 90.2704 50.4348 90.2704 49.9961C90.2704 49.5688 90.3609 49.1644 90.5426 48.7833C90.7371 48.3907 90.9899 48.0557 91.3003 47.7783C91.6248 47.49 92.0003 47.2646 92.4281 47.1029C92.8686 46.9297 93.3353 46.8428 93.8274 46.8428C94.3202 46.8428 94.7802 46.9297 95.2073 47.1029C95.6485 47.2646 96.03 47.49 96.3539 47.7783C96.6784 48.0557 96.9305 48.3907 97.1122 48.7833C97.3066 49.1644 97.4039 49.5688 97.4039 49.9961ZM96.4906 73.592H91.1454V55.0376H96.4906V73.592ZM129.94 49.9961C129.94 50.4348 129.843 50.8447 129.648 51.2258C129.466 51.607 129.214 51.942 128.89 52.2308C128.579 52.5081 128.203 52.7335 127.763 52.9066C127.335 53.0685 126.882 53.1489 126.402 53.1489C125.897 53.1489 125.424 53.0685 124.984 52.9066C124.556 52.7335 124.18 52.5081 123.856 52.2308C123.532 51.942 123.273 51.607 123.079 51.2258C122.898 50.8447 122.806 50.4348 122.806 49.9961C122.806 49.5688 122.898 49.1644 123.079 48.7833C123.273 48.3907 123.532 48.0557 123.856 47.7783C124.18 47.49 124.556 47.2646 124.984 47.1029C125.424 46.9297 125.897 46.8428 126.402 46.8428C126.882 46.8428 127.335 46.9297 127.763 47.1029C128.203 47.2646 128.579 47.49 128.89 47.7783C129.214 48.0557 129.466 48.3907 129.648 48.7833C129.843 49.1644 129.94 49.5688 129.94 49.9961ZM115.693 80.6604V75.8957L118.628 75.9305C119.341 75.9305 120.002 75.798 120.611 75.5323C121.219 75.2779 121.744 74.9319 122.185 74.4929C122.639 74.0652 122.994 73.5686 123.254 73.003C123.513 72.4368 123.643 71.8418 123.643 71.218V55.0376H129.065V71.218H129.026C129.013 72.0848 128.877 72.922 128.618 73.7305C128.372 74.539 128.015 75.2893 127.549 75.9827C127.082 76.6868 126.526 77.322 125.877 77.8882C125.23 78.4658 124.51 78.9564 123.72 79.3606C122.943 79.7769 122.107 80.0942 121.213 80.3137C120.306 80.5453 119.367 80.6604 118.395 80.6604H115.693ZM160.824 72.9508C161.951 73.3778 163.156 73.592 164.439 73.592H168.462V68.8802H164.439C163.881 68.8802 163.357 68.7871 162.864 68.6024C162.372 68.4057 161.945 68.1466 161.582 67.8227C161.219 67.4994 160.934 67.124 160.726 66.6969C160.519 66.2579 160.415 65.7901 160.415 65.2934V59.7844H168.462V55.0719H160.415V47.6572H155.128V55.0719H152.544V59.7844H155.128V65.2934C155.128 66.4366 155.369 67.5115 155.848 68.5154C156.34 69.5207 157.007 70.4042 157.85 71.1665C158.705 71.9168 159.697 72.5118 160.824 72.9508ZM141.99 69.174C141.783 69.1506 141.576 69.1104 141.368 69.0529L151.319 58.3636C150.827 57.7403 150.257 57.18 149.609 56.6833C148.961 56.1751 148.262 55.7478 147.51 55.4014C146.771 55.055 145.988 54.789 145.158 54.6044C144.329 54.4193 143.481 54.327 142.612 54.327C141.148 54.327 139.768 54.5637 138.472 55.0376C137.189 55.5111 136.062 56.1751 135.091 57.0296C134.131 57.8842 133.373 58.9179 132.816 60.1308C132.259 61.3436 131.981 62.6832 131.981 64.1503C131.981 65.5819 132.259 66.8991 132.816 68.1005C133.373 69.2898 134.131 70.3178 135.091 71.1839C136.062 72.0499 137.189 72.7259 138.472 73.2105C139.768 73.6957 141.148 73.938 142.612 73.938C143.481 73.938 144.323 73.8457 145.139 73.6616C145.968 73.4883 146.752 73.2279 147.49 72.8819C148.242 72.5352 148.935 72.1135 149.57 71.6169C150.218 71.1203 150.788 70.5601 151.28 69.9363L147.394 66.454C147.186 66.8703 146.914 67.2511 146.577 67.5978C146.253 67.9325 145.878 68.2216 145.45 68.4639C145.035 68.6948 144.588 68.8742 144.109 69.0006C143.629 69.1278 143.131 69.1914 142.612 69.1914C142.405 69.1914 142.197 69.1854 141.99 69.174ZM119.833 68.0308C120.39 66.8295 120.669 65.5357 120.669 64.1503C120.669 62.6718 120.39 61.3322 119.833 60.1308C119.276 58.9179 118.518 57.8842 117.559 57.0296C116.6 56.1636 115.472 55.4996 114.177 55.0376C112.894 54.5637 111.515 54.327 110.037 54.327C108.573 54.327 107.193 54.5756 105.897 55.0719C104.614 55.5686 103.487 56.256 102.515 57.1338C101.557 57.9998 100.799 59.0335 100.241 60.2349C99.6842 61.4359 99.4053 62.7414 99.4053 64.1503C99.4053 65.5357 99.6842 66.8295 100.241 68.0308C100.799 69.2202 101.557 70.2542 102.515 71.1317C103.487 71.9977 104.614 72.6851 105.897 73.1931C107.193 73.6904 108.573 73.938 110.037 73.938C111.515 73.938 112.894 73.6904 114.177 73.1931C115.472 72.6851 116.6 71.9977 117.559 71.1317C118.518 70.2542 119.276 69.2202 119.833 68.0308ZM86.8308 69.0355C87.2713 68.1346 87.4912 67.1701 87.4912 66.1428C87.4912 65.6803 87.4201 65.2071 87.2773 64.7219C87.1479 64.2252 86.9534 63.7514 86.6946 63.3016C86.4351 62.8505 86.124 62.4409 85.7613 62.0715C85.3986 61.69 84.9902 61.3898 84.537 61.1704C84.9775 60.9278 85.3791 60.6216 85.7419 60.2519C86.1053 59.8826 86.4157 59.4727 86.6752 59.0221C86.934 58.5715 87.1352 58.104 87.2773 57.6187C87.4201 57.1338 87.4912 56.6599 87.4912 56.1984C87.4912 55.1701 87.2713 54.2059 86.8308 53.3051C86.3902 52.404 85.7874 51.6189 85.0231 50.9489C84.2715 50.2675 83.3904 49.7306 82.38 49.3376C81.3689 48.945 80.2873 48.7485 79.1334 48.7485H65.1984V73.592H79.1334C80.2873 73.592 81.3689 73.3952 82.38 73.003C83.3904 72.6101 84.2715 72.0787 85.0231 71.4088C85.7874 70.7274 86.3902 69.9363 86.8308 69.0355Z" fill="white"/>
</svg>
